<?xml version="1.0" encoding="UTF-8"?>
<svg xmlns="http://www.w3.org/2000/svg" xmlns:xlink="http://www.w3.org/1999/xlink" width="40px" height="40px" viewBox="0 0 40 40" version="1.1">
<g id="surface217517">
<path style=" stroke:none;fill-rule:nonzero;fill:rgb(78.039216%,26.27451%,26.27451%);fill-opacity:1;" d="M 9 20.25 C 8.308594 20.25 7.75 19.691406 7.75 19 L 7.75 14 C 7.75 13.308594 8.308594 12.75 9 12.75 L 30 12.75 C 30.691406 12.75 31.25 13.308594 31.25 14 L 31.25 19 C 31.25 19.691406 30.691406 20.25 30 20.25 Z M 9 20.25 "/>
<path style=" stroke:none;fill-rule:nonzero;fill:rgb(67.058824%,20.392157%,20.392157%);fill-opacity:1;" d="M 30 13 C 30.550781 13 31 13.449219 31 14 L 31 19 C 31 19.550781 30.550781 20 30 20 L 9 20 C 8.449219 20 8 19.550781 8 19 L 8 14 C 8 13.449219 8.449219 13 9 13 L 30 13 M 30 12.5 L 9 12.5 C 8.175781 12.5 7.5 13.175781 7.5 14 L 7.5 19 C 7.5 19.824219 8.175781 20.5 9 20.5 L 30 20.5 C 30.824219 20.5 31.5 19.824219 31.5 19 L 31.5 14 C 31.5 13.175781 30.824219 12.5 30 12.5 Z M 30 12.5 "/>
<path style=" stroke:none;fill-rule:nonzero;fill:rgb(96.862745%,56.078431%,56.078431%);fill-opacity:1;" d="M 19.5 38.25 C 16.917969 38.25 14.582031 37.152344 14.179688 36.953125 L 9.75 29.429688 L 9.75 23.398438 L 8.75 22.398438 L 8.75 5.578125 C 12.152344 0.828125 19.425781 0.75 19.5 0.75 C 19.574219 0.75 26.851562 0.832031 30.25 5.578125 L 30.25 22.398438 L 29.25 23.398438 L 29.25 29.429688 L 24.820312 36.953125 C 24.417969 37.152344 22.078125 38.25 19.5 38.25 Z M 19.5 38.25 "/>
<path style=" stroke:none;fill-rule:nonzero;fill:rgb(78.039216%,26.27451%,26.27451%);fill-opacity:1;" d="M 19.5 1 C 19.648438 1 26.675781 1.109375 30 5.660156 L 30 22.292969 L 29.148438 23.148438 L 29 23.292969 L 29 29.363281 L 24.644531 36.761719 C 24.109375 37.019531 21.917969 38 19.5 38 C 17.089844 38 14.890625 37.019531 14.355469 36.761719 L 10 29.363281 L 10 23.292969 L 9.851562 23.148438 L 9 22.292969 L 9 5.660156 C 12.324219 1.109375 19.351562 1 19.5 1 M 19.5 0.5 C 19.5 0.5 11.996094 0.523438 8.5 5.5 L 8.5 22.5 L 9.5 23.5 L 9.5 29.5 L 14 37.144531 C 14 37.144531 16.578125 38.5 19.5 38.5 C 22.421875 38.5 25 37.144531 25 37.144531 L 29.5 29.5 L 29.5 23.5 L 30.5 22.5 L 30.5 5.5 C 27.003906 0.523438 19.5 0.5 19.5 0.5 Z M 19.5 0.5 "/>
<path style=" stroke:none;fill-rule:nonzero;fill:rgb(96.862745%,56.078431%,56.078431%);fill-opacity:1;" d="M 30.246094 18.46875 L 30.25 8.402344 L 30.183594 8.332031 C 28.492188 6.488281 23.761719 5.304688 23.558594 5.257812 L 23.28125 5.1875 L 22.269531 14.3125 L 19.5 15.238281 L 16.730469 14.3125 L 15.71875 5.1875 L 15.441406 5.257812 C 15.238281 5.308594 10.507812 6.488281 8.816406 8.332031 L 8.75 8.402344 L 8.75 5.578125 C 12.148438 0.832031 19.425781 0.75 19.5 0.75 C 19.574219 0.75 26.851562 0.832031 30.25 5.578125 L 30.25 18.484375 Z M 30.246094 18.46875 "/>
<path style=" stroke:none;fill-rule:nonzero;fill:rgb(78.039216%,26.27451%,26.27451%);fill-opacity:1;" d="M 19.5 1 C 19.648438 1 26.675781 1.109375 30 5.660156 L 30 7.808594 C 28.03125 6.113281 23.808594 5.0625 23.621094 5.015625 L 23.066406 4.878906 L 23.003906 5.445312 L 22.039062 14.128906 L 19.5 14.972656 L 16.960938 14.128906 L 15.996094 5.445312 L 15.933594 4.878906 L 15.378906 5.015625 C 15.191406 5.0625 10.96875 6.113281 9 7.808594 L 9 5.660156 C 12.324219 1.109375 19.351562 1 19.5 1 M 19.5 0.5 C 19.5 0.5 11.996094 0.523438 8.5 5.5 L 8.5 22.5 L 9 18.5 L 9 8.5 C 10.660156 6.691406 15.5 5.5 15.5 5.5 L 16.5 14.5 L 19.5 15.5 L 22.5 14.5 L 23.5 5.5 C 23.5 5.5 28.339844 6.691406 30 8.5 L 30 18.5 L 30.5 22.5 L 30.5 5.5 C 27.003906 0.523438 19.5 0.5 19.5 0.5 Z M 19.5 0.5 "/>
<path style=" stroke:none;fill-rule:nonzero;fill:rgb(96.862745%,56.078431%,56.078431%);fill-opacity:1;" d="M 19.5 38.25 C 16.917969 38.25 14.582031 37.152344 14.179688 36.953125 L 14.058594 36.75 L 16.617188 36.75 L 18.242188 34.75 L 20.753906 34.75 L 22.378906 36.75 L 24.914062 36.75 L 27.261719 32.773438 L 25.992188 31.765625 C 25.570312 30.886719 25.644531 29.847656 26.191406 29.035156 L 29.25 24.34375 L 29.25 29.429688 L 24.820312 36.953125 C 24.417969 37.152344 22.078125 38.25 19.5 38.25 Z M 9.75 29.429688 L 9.75 24.34375 L 12.804688 29.035156 C 13.355469 29.847656 13.429688 30.886719 13.007812 31.765625 L 11.738281 32.75 L 12.84375 34.683594 Z M 9.75 29.429688 "/>
<path style=" stroke:none;fill-rule:nonzero;fill:rgb(78.039216%,26.27451%,26.27451%);fill-opacity:1;" d="M 10 25.183594 L 12.597656 29.175781 C 13.085938 29.898438 13.160156 30.816406 12.804688 31.601562 L 11.785156 32.394531 L 10 29.363281 L 10 25.183594 M 29 25.183594 L 29 29.363281 L 27.207031 32.410156 L 26.195312 31.605469 C 25.839844 30.820312 25.914062 29.898438 26.40625 29.171875 L 29 25.183594 M 20.636719 35 L 22.113281 36.816406 L 22.261719 37 L 24.109375 37 C 23.183594 37.382812 21.40625 38 19.5 38 C 17.59375 38 15.816406 37.382812 14.890625 37 L 16.738281 37 L 16.886719 36.816406 L 18.363281 35 L 20.636719 35 M 29.5 23.5 L 25.984375 28.898438 C 25.375 29.800781 25.304688 30.957031 25.796875 31.925781 L 26.9375 32.832031 L 24.769531 36.5 L 22.5 36.5 L 20.875 34.5 L 18.125 34.5 L 16.5 36.5 L 14.167969 36.5 L 12.0625 32.8125 L 13.203125 31.925781 C 13.695312 30.957031 13.625 29.800781 13.015625 28.898438 L 9.5 23.5 L 9.5 29.5 L 14 37.144531 C 14 37.144531 16.578125 38.5 19.5 38.5 C 22.421875 38.5 25 37.144531 25 37.144531 L 29.5 29.5 Z M 29.5 23.5 "/>
<path style=" stroke:none;fill-rule:nonzero;fill:rgb(100%,93.333333%,63.921569%);fill-opacity:1;" d="M 29.5 23.5 L 30.5 22.5 L 30 18.5 L 30 8.5 C 28.339844 6.691406 23.5 5.5 23.5 5.5 L 22.5 14.5 L 19.5 15.5 L 16.5 14.5 L 15.5 5.5 C 15.5 5.5 10.660156 6.691406 9 8.5 L 9 18.5 L 8.5 22.5 L 9.5 23.5 L 13.015625 28.898438 C 13.625 29.800781 13.695312 30.957031 13.203125 31.925781 L 12.0625 32.8125 L 14.1875 36.5 L 16.5 36.5 L 18.125 34.5 L 20.875 34.5 L 22.5 36.5 L 24.792969 36.5 L 26.9375 32.832031 L 25.796875 31.925781 C 25.304688 30.957031 25.375 29.800781 25.984375 28.898438 Z M 29.5 23.5 "/>
<path style=" stroke:none;fill-rule:nonzero;fill:rgb(54.509804%,71.764706%,94.117647%);fill-opacity:1;" d="M 20.5 20.5 L 27.5 19.5 L 28.5 20.5 L 26.5 22.5 L 22.5 22.5 Z M 20.5 20.5 "/>
<path style=" stroke:none;fill-rule:nonzero;fill:rgb(54.509804%,71.764706%,94.117647%);fill-opacity:1;" d="M 18.5 20.5 L 11.5 19.5 L 10.5 20.5 L 12.5 22.5 L 16.5 22.5 Z M 18.5 20.5 "/>
<path style=" stroke:none;fill-rule:nonzero;fill:rgb(76.078431%,58.823529%,32.54902%);fill-opacity:1;" d="M 30.0625 19 L 27.5 19 L 20.742188 20.011719 L 18.125 20.027344 L 11.5 19 L 8.9375 19 L 8.875 19.5 L 11.5 19.5 L 17.992188 20.5 L 20.875 20.5 L 27.5 19.5 L 30.125 19.5 Z M 15.5 33.832031 L 16.769531 32 L 22.230469 32 L 23.5 33.832031 L 25.476562 30.703125 C 25.460938 30.289062 25.53125 29.875 25.683594 29.484375 L 23.519531 32.921875 L 22.5 31.5 L 16.5 31.5 L 15.484375 32.917969 L 13.316406 29.484375 C 13.46875 29.875 13.539062 30.289062 13.523438 30.703125 Z M 15.5 33.832031 "/>
</g>
</svg>
